<svg width="131" height="116" fill="none" xmlns="http://www.w3.org/2000/svg"><path d="M70.196 20.988c-1.406.85-2.987 1.274-4.743 1.274-1.756 0-3.338-.417-4.744-1.253M19.356 94.032a9.562 9.562 0 0 1 1.945 1.542c1.843 1.877 2.765 4.144 2.765 6.815 0 2.672-.922 4.939-2.765 6.816-1.844 1.877-4.071 2.816-6.695 2.816-2.624 0-4.851-.939-6.695-2.816-1.844-1.877-2.765-4.144-2.765-6.816 0-2.671.921-4.938 2.765-6.815a9.79 9.79 0 0 1 1.965-1.562M121.104 94.032a9.39 9.39 0 0 1 1.945 1.542c1.844 1.877 2.765 4.144 2.765 6.815 0 2.672-.921 4.939-2.765 6.816-1.844 1.877-4.071 2.816-6.695 2.816-2.624 0-4.851-.939-6.695-2.816-1.843-1.877-2.765-4.144-2.765-6.816 0-2.671.922-4.938 2.765-6.815a9.806 9.806 0 0 1 1.965-1.562" stroke="#020244" stroke-width="5" stroke-linecap="round" stroke-linejoin="round"/><path d="m2.609 81.201 7.273 12.817c1.4-.835 2.98-1.253 4.73-1.253 1.75 0 3.338.424 4.744 1.274l41.353-73.03a9.875 9.875 0 0 1-1.944-1.562c-1.844-1.877-2.766-4.144-2.766-6.816 0-2.671.922-4.939 2.766-6.816C60.608 3.938 62.835 3 65.46 3c2.624 0 4.85.938 6.695 2.815 1.843 1.877 2.765 4.145 2.765 6.816 0 2.672-.922 4.94-2.766 6.816a9.75 9.75 0 0 1-1.944 1.541l41.434 73.03c1.4-.835 2.974-1.253 4.73-1.253 1.756 0 3.344.424 4.744 1.274l7.273-12.83" stroke="#59C8E3" stroke-width="5" stroke-linecap="round" stroke-linejoin="round"/><path clip-rule="evenodd" d="M75.283 48.566c-2.51 8.877-5.02 17.762-7.522 26.64h16.828C74.698 87.803 64.8 100.4 54.909 112.998h-1.635c2.517-8.878 5.026-17.749 7.543-26.627v-.02H43.989c9.89-12.597 19.788-25.195 29.68-37.792h1.614v.007z" stroke="#020244" stroke-width="5" stroke-linecap="round" stroke-linejoin="round"/><ellipse cx="65.183" cy="12.59" rx="9.42" ry="9.59" stroke="#020244" stroke-width="5"/><ellipse cx="116.321" cy="102.329" rx="9.42" ry="9.59" stroke="#020244" stroke-width="5"/><ellipse cx="14.72" cy="102.329" rx="9.42" ry="9.59" stroke="#020244" stroke-width="5"/></svg>