<svg width="66" height="116" fill="none" xmlns="http://www.w3.org/2000/svg"><path d="M48.203 37.445h14.652V20.62c0-2.152-.757-3.984-2.277-5.507-1.52-1.522-3.347-2.281-5.495-2.281H10.469c-2.148 0-3.976.759-5.495 2.281-1.52 1.523-2.277 3.355-2.277 5.508v16.824h27.528" stroke="#0078A6" stroke-width="5" stroke-linecap="round" stroke-linejoin="round"/><path d="M28.183 25.087h4.689v-4.763M37.555 25.086h-4.683v4.768M46.264 12.576V3H19.446v9.576" stroke="#020244" stroke-width="5" stroke-linecap="round" stroke-linejoin="round"/><path d="M53.303 62.711h9.71v-25.07" stroke="#0078A6" stroke-width="5" stroke-linecap="round" stroke-linejoin="round"/><path clip-rule="evenodd" d="M41.44 37.63c-1.968 6.91-3.93 13.813-5.898 20.721h13.173c-7.742 9.805-15.49 19.61-23.231 29.415h-1.265c1.968-6.908 3.93-13.811 5.897-20.72v-.017H16.944c7.741-9.8 15.489-19.599 23.23-29.404h1.266v.006z" stroke="#0078A6" stroke-width="5" stroke-linecap="round" stroke-linejoin="round"/><path d="M35.413 87.776h27.6V62.71M2.697 37.64v25.071h9.71" stroke="#0078A6" stroke-width="5" stroke-linecap="round" stroke-linejoin="round"/><path d="M2.697 62.71v25.066h14.691" stroke="#0078A6" stroke-width="5" stroke-linecap="round" stroke-linejoin="round"/><path d="M28.166 100.297h9.35M2.697 87.777v17.138c0 2.192.759 4.058 2.283 5.609 1.523 1.551 3.356 2.324 5.51 2.324h44.73c2.153 0 3.986-.773 5.51-2.324 1.524-1.551 2.283-3.417 2.283-5.609V87.777" stroke="#020244" stroke-width="5" stroke-linecap="round" stroke-linejoin="round"/><rect x="2.697" y="12.832" width="60.158" height="100.168" rx="7.94" stroke="#020244" stroke-width="5"/></svg>