<svg width="133" height="115" fill="none" xmlns="http://www.w3.org/2000/svg"><path d="m129.982 34.092-7.338-12.924m-9.871.33-40 73m-11.5 0L19.98 21.168m-9.707.332-7.19 12.592" stroke="#020244" stroke-width="5" stroke-linecap="round" stroke-linejoin="round"/><path clip-rule="evenodd" d="M73.192 10.406c3.496.38 7.04 1.376 10.631 2.993l-3.625 9.234a40.176 40.176 0 0 0-2.62-1.127c-1.555-.608-3.014-1.058-4.386-1.348a17.242 17.242 0 0 0-3.496-.36c-1.514 0-2.613.264-3.292.803-.706.546-1.066 1.223-1.073 2.032 0 .87.448 1.644 1.344 2.322.774.608 2.716 1.651 5.832 3.13.224.104.448.2.685.311.21.104.421.2.638.311 3.123 1.438 5.452 2.972 6.972 4.603.306.304.577.615.822.926 1.46 1.95 2.192 4.417 2.2 7.403-.008 2.743-.693 5.176-2.065 7.298-1.37 2.122-3.34 3.78-5.912 4.976a18.84 18.84 0 0 1-2.655.926v4.873h-9.307v-4.14c-1.643-.097-3.089-.284-4.351-.546-1.955-.408-3.992-1.12-6.117-2.136V42.24a35.241 35.241 0 0 0 6.246 2.55c.237.055.482.117.72.173 1.214.332 2.375.587 3.495.753 1.107.16 2.166.242 3.177.242 1.731 0 3.001-.29 3.816-.892.807-.622 1.208-1.416 1.208-2.39 0-.602-.156-1.134-.468-1.59-.34-.457-.87-.913-1.582-1.369-.645-.4-2.206-1.175-4.684-2.322-.346-.166-.713-.346-1.093-.532-.122-.049-.251-.104-.367-.152-2.484-1.161-4.392-2.288-5.73-3.387-.088-.09-.17-.18-.25-.276-1.426-1.237-2.472-2.647-3.144-4.244-.706-1.59-1.065-3.462-1.072-5.626.013-4.07 1.48-7.236 4.399-9.51 1.602-1.25 3.53-2.156 5.797-2.716V6.094h9.307v4.326-.014z" stroke="#FFC907" stroke-width="5" stroke-linecap="round" stroke-linejoin="round"/><ellipse cx="67.277" cy="102.676" rx="9.504" ry="9.676" transform="rotate(-180 67.277 102.676)" stroke="#FFC907" stroke-width="5"/><ellipse cx="14.614" cy="12.676" rx="9.504" ry="9.676" transform="rotate(-180 14.614 12.676)" stroke="#FFC907" stroke-width="5"/><ellipse cx="117.121" cy="12.676" rx="9.504" ry="9.676" transform="rotate(-180 117.121 12.676)" stroke="#FFC907" stroke-width="5"/></svg>