<svg width="121" height="113" fill="none" xmlns="http://www.w3.org/2000/svg"><path d="M60.693 86.554c-.386 0-.772-.152-1.07-.45a1.55 1.55 0 0 1-.444-1.091c0-.415.16-.803.443-1.091l12-12.216a1.489 1.489 0 0 1 2.136 0 1.554 1.554 0 0 1 0 2.176L61.76 86.098c-.294.299-.68.45-1.072.45l.005.006z" fill="#020244"/><path d="M60.693 110.99c-.834 0-1.514-.692-1.514-1.541V58.666c0-.849.68-1.541 1.514-1.541.835 0 1.514.692 1.514 1.541v50.783c0 .849-.68 1.541-1.514 1.541z" fill="#020244" stroke="#020244" stroke-width="2"/><path d="M60.693 95.719h-.015l-1.792-.069-1.21-.12-1.195-.184-1.175-.24-1.153-.3-1.128-.356-1.107-.41-1.076-.46-1.05-.514-1.026-.561-.988-.614-.958-.655-.927-.703-.891-.744-.855-.787-.814-.828-.777-.865-.737-.907-.69-.939-.649-.975-.602-1.006-.556-1.038-.51-1.07-.459-1.096-.406-1.122-.35-1.148-.3-1.174-.241-1.196-.186-1.21-.123-1.233-.072-1.898.015-1.122.129-2.254.252-2.302.366-2.322.474-2.339.566-2.343.654-2.344.736-2.338.804-2.323.865-2.307.922-2.28.963-2.25 2.029-4.372 2.111-4.168 2.127-3.906 3.075-5.248 6.668-10.13s.062-.078.073-.1c.206-.282.56-.497.963-.56.401-.058.803.047 1.127.293.098.074.248.231.32.33l3.347 4.871 2.374 3.712 2.982 4.965 2.106 3.749 2.127 4.042 2.08 4.273 1 2.207.962 2.244.917 2.276.865 2.302.803 2.317.737 2.333.654 2.338.572 2.339.473 2.327.371 2.318.258 2.296.134 2.27.02 1.149-.067 1.86-.118 1.233-.18 1.216-.237 1.195-.294 1.175-.35 1.148-.402 1.127-.453 1.096-.505 1.07-.55 1.038-.598 1.006-.644.976-.69.943-.731.907-.772.87-.814.829-.85.792-.886.75-.922.702-.957.66-.99.614-1.019.566-1.05.52-1.077.466-1.102.414-1.127.356-1.149.305-1.174.246-1.19.189-1.21.126-1.864.073h-.02l-.01.01zM39.703 71.27l.061 1.667.109 1.075.16 1.06.21 1.042.258 1.023.309 1.001.355.98.397.96.443.933 1.014 1.788 1.174 1.673 1.319 1.552 1.457 1.415.778.655.808.614.84.576.865.535.89.493.917.451.943.404.963.356.983.31 1.005.262 1.024.215 1.04.162 1.056.11 1.597.058 1.637-.063 1.056-.11 1.04-.163 1.025-.215 1.004-.262.984-.314.963-.362.942-.409.917-.45.89-.494 1.705-1.111 1.587-1.269 1.457-1.415 1.318-1.552.603-.824.566-.854 1.01-1.788.442-.933.397-.96.35-.98.304-1.001.257-1.023.207-1.043.16-1.06.107-1.08.057-1.62-.016-1.043-.123-2.118-.237-2.144-.35-2.176-.448-2.207-.54-2.223-.63-2.239-.705-2.244-.777-2.239-.84-2.228-.89-2.212-.938-2.187-1.983-4.262-2.065-4.074-2.085-3.827-3.018-5.154-5.34-8.236-2.658 3.969-2.688 4.278-1.988 3.35-2.07 3.686-2.086 3.958-2.034 4.179-1.915 4.34-.891 2.213-.84 2.234-.777 2.244-.706 2.244-.628 2.244-.54 2.228-.449 2.212-.345 2.181-.237 2.15-.134 3.114.01-.026z" fill="#020244" stroke="#020244" stroke-width="2"/><path d="M60.694 86.556c-.387 0-.778-.151-1.072-.45L47.623 73.89a1.554 1.554 0 0 1 0-2.176 1.489 1.489 0 0 1 2.138 0L61.758 83.93c.289.293.443.676.443 1.09 0 .415-.16.797-.442 1.09-.294.3-.68.452-1.066.452v-.005zM60.683 74.109c-.386 0-.773-.152-1.071-.451l-6.752-6.874a1.554 1.554 0 0 1 0-2.176 1.498 1.498 0 0 1 2.138 0l6.75 6.869c.29.293.444.676.444 1.09 0 .414-.155.797-.443 1.085-.294.305-.685.451-1.071.451l.005.006z" fill="#020244" stroke="#020244" stroke-width="2"/><path d="M60.683 74.106c-.386 0-.772-.152-1.071-.45a1.57 1.57 0 0 1 0-2.182l6.751-6.873a1.498 1.498 0 0 1 2.137 0 1.554 1.554 0 0 1 0 2.175l-6.75 6.874c-.294.299-.68.45-1.072.45l.005.006zM60.693 110.992h-.015l-1.164-.016-2.343-.1-2.323-.204-2.286-.304-2.245-.399-2.2-.492-2.157-.582-2.117-.677-2.07-.765-2.024-.85-1.977-.933-1.926-1.017-1.875-1.096-1.828-1.174-1.777-1.248-1.725-1.321-1.668-1.39-1.617-1.457-1.56-1.526-1.51-1.588-1.452-1.652-1.39-1.714-1.334-1.772-1.277-1.825-1.216-1.882-1.158-1.93-1.097-1.976-1.035-2.029-.974-2.07-.911-2.114-.845-2.154-1.148-3.32a1.55 1.55 0 0 1 .082-1.174c.18-.367.49-.645.876-.77.376-.132.788-.1 1.153.084.36.183.634.497.762.89l.356 1.08.752 2.114.808 2.065.87 2.024.928 1.982.988 1.934 1.046 1.888 1.102 1.84 1.158 1.788 1.216 1.736 1.267 1.682 1.323 1.626 1.375 1.562 1.427 1.505 1.478 1.442 1.529 1.379 1.576 1.315 1.622 1.243 1.674 1.174 1.72 1.107 1.766 1.027 1.813.954 1.859.876 1.9.797 1.947.718 1.987.635 2.03.55 2.07.467 2.111.377 2.153.283 2.194.194 3.362.11h.005c.835.016 1.5.713 1.489 1.563 0 .409-.165.791-.453 1.08a1.49 1.49 0 0 1-1.061.44l-.016-.01z" fill="#020244" stroke="#020244" stroke-width="2"/><path d="M60.693 110.993c-.819 0-1.493-.666-1.514-1.505a1.531 1.531 0 0 1 1.473-1.578l1.262-.032 2.461-.152 2.42-.267 2.39-.378 2.354-.487 2.317-.598 2.276-.702 2.235-.803 2.189-.901 2.142-1.002 2.091-1.096 2.034-1.184 1.978-1.275 1.915-1.363 1.854-1.447 1.787-1.53 1.715-1.61 1.643-1.683 1.565-1.762 1.489-1.83 1.406-1.897 1.323-1.966 1.236-2.03 1.143-2.091 1.051-2.15.953-2.202.854-2.254.752-2.307.649-2.36.541-2.4.427-2.45.428-3.743a1.526 1.526 0 0 1 1.648-1.394c.396.036.762.23 1.019.545.263.315.381.718.345 1.127l-.118 1.295-.33 2.622-.453 2.595-.571 2.548-.685 2.5-.799 2.45-.906 2.395-1.009 2.338-1.113 2.276-1.21 2.218-1.308 2.15-1.401 2.08-1.488 2.014-1.576 1.94-1.658 1.861-1.74 1.783-1.813 1.703-1.89 1.615-1.962 1.531-2.03 1.442-2.09 1.347-2.153 1.254-2.209 1.158-2.266 1.059-2.317.954-2.364.85-2.41.739-2.451.629-2.493.519-2.528.404-2.56.283-3.914.194h-.036v.011z" fill="#020244" stroke="#020244" stroke-width="2"/><path d="m108.133 61.155 5.062-10.307 5.063 10.307h-10.125z" fill="#020244" stroke="#020244" stroke-width="2"/><path d="M118.258 62.377h-10.125c-.417 0-.803-.22-1.019-.582a1.251 1.251 0 0 1-.052-1.19l5.062-10.308a1.189 1.189 0 0 1 2.148 0l5.062 10.308c.185.378.165.828-.051 1.19a1.202 1.202 0 0 1-1.02.582h-.005zm-8.183-2.443h6.241l-3.12-6.354-3.121 6.354z" fill="#020244" stroke="#020244" stroke-width="2"/><path d="M8.34 53.423c-.046 0-.092 0-.138-.005a1.48 1.48 0 0 1-1.025-.55 1.56 1.56 0 0 1-.345-1.127l.118-1.295.33-2.617.453-2.595.572-2.548.685-2.5.798-2.45.906-2.395 1.01-2.338 1.112-2.276 1.21-2.212 1.308-2.15 1.4-2.081 1.49-2.014 1.575-1.94 1.658-1.86 1.74-1.783 1.819-1.704 1.89-1.62 1.962-1.531 2.029-1.442 2.09-1.347 2.153-1.259 2.21-1.158 2.265-1.06 2.318-.954 2.363-.849 2.41-.74 2.452-.628 2.492-.52 2.529-.398 2.56-.283L60.651 1l1.21.016 2.328.105 2.312.204 2.276.299 2.24.393 2.205.488 2.168.576 2.126.666 2.086.75 2.04.834 1.998.917 1.946 1.002 1.9 1.08 1.854 1.158 1.803 1.232 1.75 1.306 1.695 1.379 1.643 1.447 1.586 1.515 1.524 1.583 1.468 1.646 1.406 1.71 1.344 1.767 1.282 1.83 1.216 1.882 1.153 1.94 1.082 1.992 1.014 2.044.948 2.092.875 2.14.803 2.186 1.066 3.376c.119.393.078.813-.113 1.175-.19.361-.51.629-.896.744a1.516 1.516 0 0 1-1.885-1.033l-.324-1.096-.695-2.133-.763-2.082-.829-2.034-.896-1.992-.963-1.94-1.03-1.893-1.091-1.84-1.154-1.788-1.215-1.73-1.272-1.673-1.329-1.614-1.385-1.558-1.442-1.494-1.494-1.431-1.55-1.369-1.601-1.3-1.648-1.232-1.7-1.164-1.745-1.09-1.793-1.017-1.838-.944-1.88-.865-1.92-.787-1.963-.707-2.003-.624-2.044-.546-2.08-.456-2.117-.372-2.153-.283-2.183-.194-3.307-.115-1.23.031-2.462.152-2.42.267-2.39.378-2.353.488-2.318.597-2.276.703-2.235.802-2.189.902-2.142.996-2.086 1.096-2.034 1.184-1.977 1.274-1.916 1.364-1.854 1.447-1.787 1.53-1.715 1.61-1.642 1.683-1.566 1.757-1.488 1.83-1.406 1.897-1.324 1.966-1.236 2.03-1.143 2.091-1.05 2.15-.953 2.202-.855 2.26-.752 2.306-.649 2.354-.54 2.407-.428 2.448-.427 3.744c-.072.797-.737 1.4-1.504 1.4h-.01z" fill="#00C9A2" stroke="#00C9A2" stroke-width="2"/><path d="m3.124 50.848 5.062 10.307 5.063-10.307H3.124z" fill="#00C9A2"/><path d="M8.186 62.377c-.453 0-.87-.262-1.07-.676L2.052 51.393a1.252 1.252 0 0 1 .052-1.19 1.201 1.201 0 0 1 1.02-.582h10.124c.417 0 .803.22 1.02.582.216.362.236.813.05 1.19L9.259 61.701a1.202 1.202 0 0 1-1.077.676h.005zM5.066 52.07l3.12 6.355 3.121-6.355H5.066z" fill="#00C9A2" stroke="#00C9A2" stroke-width="2"/></svg>