<?xml version="1.0" encoding="utf-8"?>
<!-- Generator: Adobe Illustrator 26.5.0, SVG Export Plug-In . SVG Version: 6.00 Build 0)  -->
<svg version="1.1" id="Layer_1" xmlns="http://www.w3.org/2000/svg" xmlns:xlink="http://www.w3.org/1999/xlink" x="0px" y="0px"
	 viewBox="0 0 98 114" style="enable-background:new 0 0 98 114;" xml:space="preserve" width="98" height="114">
<style type="text/css">
	.st0{fill:none;stroke:#020244;stroke-width:4;stroke-linecap:round;stroke-linejoin:round;}
	.st1{fill:none;stroke:#020244;stroke-width:2.362;stroke-linecap:round;stroke-linejoin:round;}
	.st2{fill:none;stroke:#FF5400;stroke-width:4;stroke-linecap:round;stroke-linejoin:round;}
	.st3{fill:#020244;stroke:#020244;}
</style>
<path class="st0" d="M69.5,44.7l-1.6,12.6h13.6l-2.9-22.2c0.2-0.1,0.3-0.2,0.5-0.4c-0.7,0.5-1.5,0.9-2.4,1.2
	c-0.7,0.2-1.4,0.3-2.1,0.3c-0.9,0-1.8-0.2-2.6-0.5c-0.5,0.4-1,0.7-1.5,1v0c-0.3,0.2-0.7,0.3-1,0.5c0,0,0,0,0,0L68,37.6L58.2,41
	c0,0,0,0,0,0c-2.8,0.9-4.5,0.1-5.2-2.2c-0.1-0.3-0.1-0.7,0-1c0.1-0.3,0.3-0.6,0.6-0.8l13.4-8.3c0-0.3,0-0.5,0-0.8
	c0-2.3,0.8-4.3,2.3-5.9c0.2-0.2,0.4-0.4,0.6-0.6c-0.1-0.9-0.1-1.9,0.1-3v0l2.6-12.5c0,0,0,0,0,0c0.3-1.4,0.8-2.4,1.5-3
	c0.8-0.8,1.7-1.1,2.9-0.9c0.3,0.1,0.6,0.2,0.8,0.5c0.2,0.3,0.3,0.6,0.3,1v16.8c0.8,0.4,1.5,1,2.1,1.7c0.5,0.6,1,1.2,1.3,1.8
	c0.4,0.8,0.7,1.7,0.9,2.7c0.8,0.3,1.6,0.9,2.5,1.7l0,0l8.7,8.6c0,0,0,0,0,0c2.1,2.2,2.4,4.2,0.9,5.9c-0.2,0.3-0.5,0.5-0.8,0.5
	c-0.3,0.1-0.6,0-0.9-0.2l-13.5-8.4"/>
<path class="st1" d="M74.6,29.7v-1.8H73 M74.6,26.1v1.8h1.7"/>
<path class="st2" d="M44.4,11.1h-8.9L32.8,2l-7.1,5.6L18.5,2l-2.7,9.1H6.9l2.7,9.1l-7.2,5.6l7.2,5.6l-2.7,9.1h8.9l2.7,9.1l7.2-5.6
	l7.2,5.6l2.7-9.1h8.9l-2.7-9.1l7.2-5.6l-7.2-5.6L44.4,11.1L44.4,11.1z"/>
<path class="st2" d="M19.1,18.7c-1.8,1.9-2.7,4.3-2.7,7c0,2.8,0.9,5.1,2.7,7c1.8,1.9,4,2.9,6.5,2.9s4.7-1,6.5-2.9
	c1.8-1.9,2.7-4.3,2.7-7c0-2.7-0.9-5.1-2.7-7c-1.8-1.9-4-2.9-6.5-2.9S20.9,16.8,19.1,18.7L19.1,18.7L19.1,18.7z"/>
<path class="st0" d="M24,57.4l-1.6,8.1h-8.8l7.1,8.4l-1.2,6H7.1l10,11.8l-4,19.9h7.3l5.2-25.9l5.2,25.9h7.3l-4-19.9l10-11.8H31.8
	l-1.2-6l7.2-8.4h-8.8v0l-1.6-8.1L24,57.4L24,57.4z"/>
<path class="st1" d="M70.5,36.6c-0.3,0.2-0.7,0.3-1.1,0.5l0,0L68,37.6"/>
<path class="st2" d="M58.7,64.9"/>
<path class="st3" d="M86.6,89.7H55.2v2.1h31.4C86.6,91.8,86.6,89.7,86.6,89.7z M90.7,77H59.3v2.1h31.4V77z"/>
<path class="st3" d="M83.4,67.1l-11.6,34l1.8,0.7l11.6-34C85.3,67.8,83.4,67.1,83.4,67.1z M72.9,67.1l-11.6,34l1.8,0.7l11.6-34
	L72.9,67.1L72.9,67.1z M81.8,109.9H61.1v2.1h20.7V109.9z"/>
<path class="st3" d="M66.4,101.2l-1.7,9.6l1.9,0.4l1.7-9.6L66.4,101.2z M76.6,101.2l-1.9,0.4l1.6,9.6l1.9-0.4L76.6,101.2L76.6,101.2
	z"/>
<path class="st3" d="M82.5,102.4H53.2c-1.1,0-2-1-2-2.1c0-0.3,0.1-0.5,0.1-0.6l10.1-32c0.3-0.9,1-1.4,1.9-1.4h29.3c1.1,0,2,1,2,2.1
	c0,0.2,0,0.5-0.1,0.7L84.4,101C84.1,101.9,83.4,102.5,82.5,102.4L82.5,102.4L82.5,102.4z M63.3,68.5l-10.1,31.9l29.3,0l10.1-31.8
	H63.3z"/>
</svg>
