<svg width="146" height="116" fill="none" xmlns="http://www.w3.org/2000/svg"><path d="M49.217 16.93c9.564-18.6 38.308-18.56 47.838.046" stroke="#020244" stroke-width="5" stroke-linecap="round" stroke-linejoin="round"/><path d="M60.175 22.964c5.188-10.117 20.794-10.11 25.99 0" stroke="#00C9A2" stroke-width="5" stroke-linecap="round" stroke-linejoin="round"/><path d="M30.19 46.136c.16 8.723-13.599 8.69-13.399-.033-.193-8.764 13.639-8.73 13.399.033zm0 0h7.096l4.308 4.322c14.732-20.961 48.332-21.015 63.084-.047l4.275-4.275h7.076c-.24-8.763 13.598-8.797 13.398-.033.2 8.723-13.558 8.756-13.398.033" stroke="#020244" stroke-width="5" stroke-linecap="round" stroke-linejoin="round"/><path d="M66.31 80.914c-7.25 1.18-13.685 4.322-19.32 9.424-13.212-19.3 2.574-48.385 26.19-47.391 23.595-.967 39.368 28.157 26.136 47.424-5.629-5.115-12.071-8.27-19.32-9.47" stroke="#0078A6" stroke-width="5" stroke-linecap="round" stroke-linejoin="round"/><path d="M30.19 101.575c.2 8.743-13.599 8.743-13.399 0-.2-8.744 13.599-8.744 13.399 0zm0 0 7.096-.02 4.308-4.309c-5.115-6.736-7.67-14.532-7.67-23.395H16.432m0 0c.16 8.723-13.598 8.69-13.398-.033-.193-8.764 13.638-8.73 13.398.033z" stroke="#020244" stroke-width="5" stroke-linecap="round" stroke-linejoin="round"/><path clip-rule="evenodd" d="M122.725 94.846c-8.71-.18-8.71 13.645 0 13.465 8.703.18 8.703-13.646 0-13.466z" stroke="#020244" stroke-width="5" stroke-linecap="round" stroke-linejoin="round"/><path d="M104.678 50.41c5.149 6.743 7.723 14.559 7.723 23.449h17.393c-.246-8.77 13.666-8.803 13.465-.033.207 8.73-13.631 8.763-13.465.033M112.394 73.86c0 8.89-2.574 16.712-7.723 23.462l4.275 4.241 7.076.02" stroke="#020244" stroke-width="5" stroke-linecap="round" stroke-linejoin="round"/><path d="M104.678 97.32c-14.779 20.935-48.351 20.902-63.084-.066" stroke="#020244" stroke-width="5" stroke-linecap="round" stroke-linejoin="round"/><path d="M73.16 91.458c-6.383-.114-6.383 9.957 0 9.837 6.362.113 6.362-9.937 0-9.837zm0 0V51.016" stroke="#FF5400" stroke-width="5" stroke-linecap="round" stroke-linejoin="round"/><path d="M33.918 73.86c0-8.863 2.554-16.666 7.67-23.395" stroke="#020244" stroke-width="5" stroke-linecap="round" stroke-linejoin="round"/></svg>