<svg width="116" height="116" fill="none" xmlns="http://www.w3.org/2000/svg"><path d="M108.551 112.998V72.344l4.78-4.78v-7.173H51.159v9.563l4.785 2.39v40.654M84.635 60.389V31.693c0-5.716-3.818-9.685-7.174-11.959h-9.564c-3.357 2.268-7.174 6.238-7.174 11.959v28.696" stroke="#020244" stroke-width="5" stroke-miterlimit="10"/><path d="M96.593 55.608V7.784A4.784 4.784 0 0 0 91.808 3H77.46a4.784 4.784 0 0 0-4.784 4.784v4.785M89.419 29.309h7.174M67.897 12.563h9.563M89.419 41.266h7.174M106.157 41.266v16.737M108.552 72.344H87.029M.941 113h114.784" stroke="#020244" stroke-width="5" stroke-miterlimit="10"/><path d="M87.03 96.266v7.174M77.46 96.266v7.174M67.897 96.266v7.174M96.593 96.266v7.174" stroke="#FFC907" stroke-width="5" stroke-miterlimit="10"/><path d="M55.943 72.344h11.954M51.16 86.691H8.114v26.307" stroke="#020244" stroke-width="5" stroke-miterlimit="10"/><path d="M36.811 96.266v7.174M27.248 96.266v7.174M17.679 96.266v7.174M46.375 96.266v7.174" stroke="#FFC907" stroke-width="5" stroke-miterlimit="10"/><path d="M41.596 29.309H27.248V86.7h14.348V29.309z" stroke="#020244" stroke-width="5" stroke-miterlimit="10"/><path d="M34.421 24.52c0-4.982-4.151-12.03-14.348-9.564-6.176 1.494-12.95 1.893-16.737-2.39" stroke="#FFC907" stroke-width="5" stroke-miterlimit="10"/><path d="M15.29 86.692V60.391" stroke="#020244" stroke-width="5" stroke-miterlimit="10"/></svg>