<svg width="116" height="116" fill="none" xmlns="http://www.w3.org/2000/svg"><path d="M12.825 93.152h10.136M93.705 93.152h10.136" stroke="#020244" stroke-width="5" stroke-linecap="round" stroke-linejoin="round"/><path d="M103.841 112.994H93.705V83.306a5.068 5.068 0 1 1 10.136 0v29.688zM22.961 112.994H12.825V83.306a5.068 5.068 0 1 1 10.136 0v29.688z" stroke="#FF8500" stroke-width="5" stroke-linecap="round" stroke-linejoin="round"/><path d="M84.221 112.993H32.445V41.627l25.886-17.322 25.89 17.322v71.366zM113.325 60.645H84.221V113h29.104V60.645zM32.445 60.645H3.342V113h29.103V60.645zM32.445 60.644H3.342l6.927-11.183h22.176v11.183zM113.325 60.644H84.221V49.46h22.176l6.928 11.183z" stroke="#020244" stroke-width="5" stroke-linecap="round" stroke-linejoin="round"/><path d="M65.59 112.992H51.075V96.906a7.253 7.253 0 0 1 7.254-7.254 7.253 7.253 0 0 1 7.254 7.254v16.086h.005z" stroke="#020244" stroke-width="5" stroke-linecap="round" stroke-linejoin="round"/><path d="M65.59 51.754a7.253 7.253 0 0 1-7.254 7.254 7.253 7.253 0 0 1-7.254-7.254 7.253 7.253 0 0 1 7.254-7.254 7.253 7.253 0 0 1 7.254 7.254zM44.475 69.672v3.466M58.331 69.672v3.466M72.191 69.672v3.466" stroke="#FF8500" stroke-width="5" stroke-linecap="round" stroke-linejoin="round"/><path d="M58.33 24.304V3" stroke="#020244" stroke-width="5" stroke-linecap="round" stroke-linejoin="round"/><path d="M70.093 3H58.331v9.752h11.762V3z" stroke="#FF8500" stroke-width="5" stroke-linecap="round" stroke-linejoin="round"/></svg>