<svg width="70" height="116" fill="none" xmlns="http://www.w3.org/2000/svg"><path d="m57.924 106.693-40.156-28.55 31.318-15.786-24.79-16.965 21.386-21.196L24.318 3 2.955 24.29h64.09L45.682 3 24.318 24.196l21.386 21.196-24.79 16.965 31.318 15.786-40.156 28.55" stroke="#020244" stroke-width="4.5" stroke-linecap="round" stroke-linejoin="round"/><path d="M57.924 106.693 35 90.395m0 0L17.768 78.143 35 69.457m0 20.938 17.232-12.252L35 69.457m0 20.938-22.924 16.298M35 69.457l14.086-7.1L35 52.717m0 16.74-14.086-7.1L35 52.717m0 0-10.704-7.325L35 34.782m0 17.935 10.704-7.325L35 34.782m0 0 10.682-10.586L35 13.598m0 21.185L24.318 24.196 35 13.598m0 0L24.318 3M35 13.598 45.682 3" stroke="#FFC907" stroke-width="4.5" stroke-linecap="round" stroke-linejoin="round"/><path d="M57.924 106.692H12.077l12.22-61.301h21.407l12.22 61.301z" stroke="#020244" stroke-width="4.5" stroke-linecap="round" stroke-linejoin="round"/><path d="m2.955 45.58 21.363-21.29h21.364l21.363 21.29H2.955z" stroke="#020244" stroke-width="4.5" stroke-linecap="round" stroke-linejoin="round"/><path d="M45.682 3H24.32v42.392h21.363V3zM67.045 106.68H2.955v6.319h64.09v-6.319zM9.429 24.29H2.955v6.128h6.474v-6.129zM67.045 24.29h-6.474v6.128h6.474v-6.129zM9.429 45.578H2.955v6.129h6.474v-6.129zM67.045 45.578h-6.474v6.129h6.474v-6.129z" stroke="#020244" stroke-width="4.5" stroke-linecap="round" stroke-linejoin="round"/></svg>