<svg width="116" height="116" fill="none" xmlns="http://www.w3.org/2000/svg"><path d="M3 112.999h57.081V40.707L3.001 73.043V113zM25.101 60.522V49.858l29.03-16.448v10.664" stroke="#020244" stroke-width="5" stroke-linecap="round" stroke-linejoin="round"/><path d="M54.132 112.989H113V3H54.132v41.076" stroke="#020244" stroke-width="5" stroke-linecap="round" stroke-linejoin="round"/><path d="M95.144 95.914H71.972v17.076h23.172V95.914z" stroke="#020244" stroke-width="5" stroke-linecap="round" stroke-linejoin="round"/><path d="M95.144 16.754V23M71.971 16.754V23M83.56 16.754V23M95.144 32.379v6.247M71.971 32.379v6.247M83.56 32.379v6.247M95.144 48v6.252M71.971 48v6.252M83.56 48v6.252M95.144 63.625v6.252M71.971 63.625v6.252M83.56 63.625v6.252M95.144 79.25v6.252M71.971 79.25v6.252M83.56 79.25v6.252" stroke="#00C9A2" stroke-width="5" stroke-linecap="round" stroke-linejoin="round"/><path d="M48.668 102.643v-44.1M37.25 102.641V65.008M25.832 102.639V71.891M14.413 102.146V77.941M60.081 52.078 3.001 84.414" stroke="#020244" stroke-width="5" stroke-linecap="round" stroke-linejoin="round"/></svg>