<svg width="112" height="116" fill="none" xmlns="http://www.w3.org/2000/svg"><path d="M36.482 38.496H15.703V113h80.213V38.496H75.138" stroke="#020244" stroke-width="5" stroke-linecap="round" stroke-linejoin="round"/><path d="M34.9 60.332h-9.912v12.261H34.9V60.332zM67.406 60.332H44.208v12.261h23.198V60.332zM34.9 84.555h-9.912v12.261H34.9V84.555zM86.613 60.328H76.7V72.59h9.912V60.33zM86.613 84.555H76.7v12.261h9.912V84.555z" stroke="#FF5400" stroke-width="5" stroke-linecap="round" stroke-linejoin="round"/><path d="M67.406 84.555H44.19v28.439h23.217v-28.44zM75.137 38.494h23.886v-8.26h-19.23M36.482 38.494H12.595v-8.26h19.263M78.441 21.879h3.435c4.559 0 8.26 3.702 8.26 8.26M21.482 30.138a8.19 8.19 0 0 1 2.41-5.812c1.489-1.489 3.534-2.443 5.85-2.443h3.436M108.528 60.332H95.911v52.663h12.617V60.332zM15.422 60.332H2.805v52.663h12.617V60.332z" stroke="#020244" stroke-width="5" stroke-linecap="round" stroke-linejoin="round"/><path d="M32.79 26.02C32.79 13.305 43.093 3 55.81 3c12.715 0 23.02 10.305 23.02 23.02 0 12.716-10.305 23.02-23.02 23.02-12.716 0-23.02-10.304-23.02-23.02z" stroke="#020244" stroke-width="5" stroke-linejoin="round"/><path d="m69.025 21.617-9.172.36.36-9.172h-8.807l.36 9.168-9.173-.356v8.807l9.173-.36-.36 9.173h8.807l-.356-9.168 9.168.355v-8.807z" stroke="#FF5400" stroke-width="5" stroke-linejoin="round"/></svg>