<svg width="78" height="114" fill="none" xmlns="http://www.w3.org/2000/svg"><path d="M30.863 27.645c-6.657 8.702-11.11 18.757-11.11 29.448 0 10.69 4.434 20.644 11.066 29.258M46.521 86.359c6.632-8.614 11.066-18.593 11.066-29.258s-4.453-20.753-11.11-29.449M38.67 26.61v60.783M8.256 56.996h60.822" stroke="#59C8E3" stroke-width="4" stroke-linecap="round" stroke-linejoin="round"/><path d="M14.494 38.559c7.146 3.017 15.39 4.738 24.17 4.738 8.778 0 17.023-1.721 24.17-4.738M14.494 75.446c7.146-3.017 15.39-4.739 24.17-4.739 8.778 0 17.023 1.722 24.17 4.739" stroke="#59C8E3" stroke-width="4" stroke-linecap="round" stroke-linejoin="round"/><path d="M69.078 57.006a30.194 30.194 0 0 1-5.584 17.55 30.571 30.571 0 0 1-7.267 7.261 30.289 30.289 0 0 1-17.563 5.578A30.29 30.29 0 0 1 21.1 81.816a30.454 30.454 0 0 1-7.267-7.26A30.21 30.21 0 0 1 8.25 57.006a30.21 30.21 0 0 1 5.583-17.551 30.454 30.454 0 0 1 7.267-7.26 30.289 30.289 0 0 1 17.564-5.578 30.288 30.288 0 0 1 17.563 5.577 30.57 30.57 0 0 1 7.267 7.26 30.209 30.209 0 0 1 5.584 17.552zM7.049 102.538V87.864l3.43-3.41M70.284 102.538V87.864l-3.43-3.41M38.67 96.32v6.219M7.049 111.999a4.73 4.73 0 0 0 4.732-4.726 4.73 4.73 0 0 0-4.732-4.726 4.73 4.73 0 0 0-4.733 4.726 4.73 4.73 0 0 0 4.733 4.726zM38.67 111.999a4.73 4.73 0 0 0 4.732-4.726 4.73 4.73 0 0 0-4.732-4.726 4.73 4.73 0 0 0-4.733 4.726 4.73 4.73 0 0 0 4.733 4.726zM70.284 111.999a4.73 4.73 0 0 0 4.733-4.726 4.73 4.73 0 0 0-4.733-4.726 4.73 4.73 0 0 0-4.732 4.726 4.73 4.73 0 0 0 4.732 4.726zM10.479 29.546l-3.43-3.418V11.461M66.854 29.546l3.43-3.418V11.461M38.67 11.457v6.219M7.049 11.452a4.73 4.73 0 0 0 4.732-4.726A4.73 4.73 0 0 0 7.05 2a4.73 4.73 0 0 0-4.733 4.726 4.73 4.73 0 0 0 4.733 4.726zM38.67 11.452a4.73 4.73 0 0 0 4.732-4.726A4.73 4.73 0 0 0 38.67 2a4.73 4.73 0 0 0-4.733 4.726 4.73 4.73 0 0 0 4.733 4.726zM70.284 11.452a4.73 4.73 0 0 0 4.733-4.726A4.73 4.73 0 0 0 70.284 2a4.73 4.73 0 0 0-4.732 4.726 4.73 4.73 0 0 0 4.732 4.726z" stroke="#020244" stroke-width="4" stroke-linecap="round" stroke-linejoin="round"/></svg>