<svg width="116" height="116" fill="none" xmlns="http://www.w3.org/2000/svg"><path d="M106.124 38.48H9.878v9.28h96.246v-9.28z" stroke="#020244" stroke-width="5" stroke-linecap="round" stroke-linejoin="round"/><path d="M28.35 59.453H16.739v41.806h11.613V59.453z" stroke="#0078A6" stroke-width="5" stroke-linecap="round" stroke-linejoin="round"/><path d="M32.431 47.754H12.658v11.695h19.773V47.754zM32.431 101.258H12.658v11.744h19.773v-11.744z" stroke="#020244" stroke-width="5" stroke-linecap="round" stroke-linejoin="round"/><path d="M63.807 59.453H52.195v41.806h11.612V59.453z" stroke="#0078A6" stroke-width="5" stroke-linecap="round" stroke-linejoin="round"/><path d="M67.887 47.754H48.114v11.695h19.773V47.754zM67.887 101.258H48.114v11.744h19.773v-11.744z" stroke="#020244" stroke-width="5" stroke-linecap="round" stroke-linejoin="round"/><path d="M99.263 59.453H87.651v41.806h11.612V59.453z" stroke="#0078A6" stroke-width="5" stroke-linecap="round" stroke-linejoin="round"/><path d="M103.343 47.754H83.57v11.695h19.773V47.754zM103.343 101.258H83.57v11.744h19.773v-11.744zM57.998 3 3.002 31.381v7.095h109.996V31.38L57.998 3zM112.998 112.996H3.002" stroke="#020244" stroke-width="5" stroke-linecap="round" stroke-linejoin="round"/></svg>